<svg width="300" height="300" viewBox="0 0 300 300" fill="none" xmlns="http://www.w3.org/2000/svg">
<path d="M265.28 98C265.28 54.73 230.16 20 187.28 20H55.53C44.15 20 35 29.24 35 40.5401C35 61.5901 79.57 77.5598 79.57 150C79.57 222.44 35 238.42 35 259.46C35 270.76 44.15 280 55.53 280H187.28C230.16 280 265.28 245.27 265.28 202C265.28 170.2 246.17 150.83 245.43 150C246.17 149.17 265.28 129.8 265.28 98ZM62.17 42.2901H187.28C202.16 42.2901 216.15 48.0799 226.68 58.6099C237.2 69.1299 243 83.12 243 98.01C243 112.9 237.52 126.02 227.75 136.31L62.17 42.2901ZM226.67 241.4C216.15 251.92 202.16 257.72 187.27 257.72H62.16L227.74 163.7C237.51 173.99 242.99 187.6 242.99 202C242.99 216.4 237.19 230.87 226.67 241.4ZM86.41 218.32C87.73 215.55 101.85 188.15 101.85 150C101.85 111.85 87.73 84.45 86.41 81.68L206.73 150L86.41 218.32Z" fill="#949494"/>
</svg>
